<svg
  xmlns="http://www.w3.org/2000/svg"
  viewBox="0 0 100 100"
  fill="#4d4d4d"
  x="0px"
  y="0px"
  >
  <style>
    path {
      color: black;
    }

    @media (prefers-color-scheme: dark) {
      path {
        color: white;
    }
  }
  </style>
  <path d="M75.83,54.29H29.92a2.87,2.87,0,0,1,0-5.73H67.23l-4.61-3.42a2.87,2.87,0,0,1,3.43-4.59l11.5,8.58a2.87,2.87,0,0,1-1.72,5.16Z"></path>
  <path d="M52.87,80V77.18H31.43c-.09.23-.14.43-.23.65a7.36,7.36,0,0,1-7,5,2.87,2.87,0,0,0,0,5.73H55.82a14.11,14.11,0,0,1-3-8.58Z"></path>
  <path d="M52.87,65.72H12.7a2.86,2.86,0,0,1-2.86-2.85V20a2.88,2.88,0,0,1,2.86-2.88H75.83A2.88,2.88,0,0,1,78.69,20v2.85h5.75V20a8.6,8.6,0,0,0-8.61-8.58H12.7A8.6,8.6,0,0,0,4.1,20v42.9a8.6,8.6,0,0,0,8.6,8.58H52.87Z"></path>
  <path d="M81.55,80H72.94a2.87,2.87,0,0,1,0-5.73h8.61a2.87,2.87,0,1,1,0,5.73ZM87.3,28.55H67.23a8.6,8.6,0,0,0-8.61,8.58h5.72a2.87,2.87,0,0,1,2.89-2.88H87.3a2.87,2.87,0,0,1,2.86,2.88V65.72H64.34V60H58.62V80a8.6,8.6,0,0,0,8.61,8.58H87.3A8.6,8.6,0,0,0,95.9,80V37.13a8.6,8.6,0,0,0-8.6-8.58Z"></path>
  <path d="M16.56,35a2,2,0,0,1-2,2,2,2,0,0,1-2-2V24.33a5.28,5.28,0,0,1,5.26-5.24h11.1a2,2,0,0,1,2,2,2,2,0,0,1-2,2H17.79a1.3,1.3,0,0,0-.86.34,1.28,1.28,0,0,0-.37.88Z"></path>
  <path d="M65.26,68.68a1.23,1.23,0,0,0-1.41,1.09,5,5,0,0,0-4.48,3.37c-1,3.27,1.37,6.77,4.39,7.92a4.57,4.57,0,0,0,4.32-.34c1.4-1,1.62-2.72,1.81-4.33C70.3,73,69.3,69,65.26,68.68Zm1.7,7.1c-.15,1.61-.44,3.29-2.44,2.35-1.29-.61-2.71-2.24-2.37-3.78A1.86,1.86,0,0,1,64.85,73a1.34,1.34,0,0,0,1.83-.3A6.55,6.55,0,0,1,67,75.78Z"></path>
  <path d="M89.75,67.75a1.25,1.25,0,0,0-1.42,1.09,5,5,0,0,0-4.47,3.37c-1.06,3.27,1.36,6.78,4.38,7.92a4.59,4.59,0,0,0,4.32-.33c1.4-1,1.62-2.73,1.81-4.33C94.78,72,93.78,68.09,89.75,67.75Zm1.69,7.11c-.15,1.6-.43,3.29-2.44,2.34-1.28-.6-2.71-2.24-2.37-3.78a1.87,1.87,0,0,1,2.71-1.34,1.33,1.33,0,0,0,1.82-.29A6.53,6.53,0,0,1,91.44,74.86Z"></path>
</svg>
