<?xml version="1.0" encoding="UTF-8"?>
<svg width="1200pt" height="1200pt" version="1.1" viewBox="0 0 1200 1200" xmlns="http://www.w3.org/2000/svg">
 <g>
  <path d="m60 0h1080c33.137 0 60 33.137 60 60v1080c0 33.137-26.863 60-60 60h-1080c-33.137 0-60-33.137-60-60v-1080c0-33.137 26.863-60 60-60z" fill="#c362dd"/>
  <path d="m795.2 632.42h-346.95c-7.4297-0.4375-14.117-4.6602-17.715-11.18-3.5938-6.5195-3.5938-14.426 0-20.945 3.5977-6.5195 10.285-10.738 17.715-11.176h281.96l-34.84-25.844v-0.003906c-5.6875-4.8008-8.5195-12.184-7.4961-19.559 1.0234-7.3711 5.7578-13.707 12.539-16.777s14.664-2.4492 20.879 1.6484l86.906 64.84c4.8633 3.6719 7.9531 9.2188 8.5234 15.285 0.56641 6.0625-1.4414 12.086-5.5352 16.598-4.0938 4.5117-9.8945 7.0938-15.984 7.1133z" fill="#fff"/>
  <path d="m621.69 826.71v-21.309h-162.03c-0.67969 1.7383-1.0586 3.25-1.7383 4.9141v-0.003906c-3.7383 11.051-10.859 20.645-20.352 27.426-9.4961 6.7812-20.879 10.406-32.547 10.359-7.4297 0.44141-14.117 4.6602-17.715 11.18-3.5938 6.5195-3.5938 14.426 0 20.945 3.5977 6.5195 10.285 10.738 17.715 11.18h238.96c-14.504-18.523-22.473-41.32-22.672-64.84z" fill="#fff"/>
  <path d="m621.69 718.8h-303.57c-5.7188 0-11.207-2.2656-15.258-6.3047-4.0508-4.0352-6.3359-9.5156-6.3555-15.234v-323.97c0-5.7461 2.2695-11.262 6.3203-15.34 4.0508-4.0742 9.5469-6.3867 15.293-6.4258h477.08c5.7461 0.039062 11.242 2.3516 15.293 6.4258 4.0469 4.0781 6.3203 9.5938 6.3203 15.34v21.539h43.453v-21.539c-0.039062-17.227-6.9141-33.73-19.117-45.887-12.199-12.156-28.727-18.977-45.949-18.957h-477.08c-17.211 0-33.719 6.8281-45.902 18.984s-19.051 28.648-19.09 45.859v324.2-0.003907c0.039063 17.211 6.9062 33.703 19.09 45.859s28.691 18.98 45.902 18.98h303.57z" fill="#fff"/>
  <path d="m838.43 826.71h-65.066c-7.4336-0.4375-14.121-4.6562-17.715-11.176-3.5938-6.5195-3.5938-14.43 0-20.945 3.5938-6.5195 10.281-10.742 17.715-11.18h65.066c5.9648-0.35156 11.809 1.7695 16.156 5.8672 4.3477 4.0977 6.8125 9.8086 6.8125 15.785 0 5.9727-2.4648 11.684-6.8125 15.781-4.3477 4.0977-10.191 6.2227-16.156 5.8672zm43.453-388.81h-151.67c-17.223-0.019532-33.75 6.7969-45.949 18.953-12.203 12.16-19.078 28.66-19.117 45.887h43.227c-0.019532-5.793 2.2773-11.352 6.3789-15.441 4.1016-4.0859 9.668-6.3633 15.461-6.3242h151.67c5.7539 0.019532 11.262 2.3242 15.316 6.4062 4.0508 4.082 6.3164 9.6055 6.2969 15.359v216.06h-195.12v-43.227h-43.227v151.14c0.039063 17.227 6.9141 33.727 19.117 45.887 12.199 12.156 28.727 18.977 45.949 18.953h151.67c17.211 0 33.719-6.8242 45.902-18.98s19.051-28.648 19.09-45.859v-323.97c-0.039062-17.211-6.9062-33.703-19.09-45.859s-28.691-18.98-45.902-18.98z" fill="#fff"/>
  <path d="m347.29 486.64c0 4.0078-1.5898 7.8516-4.4258 10.688-2.832 2.8359-6.6797 4.4258-10.688 4.4258-4.0078 0-7.8516-1.5898-10.688-4.4258-2.832-2.8359-4.4258-6.6797-4.4258-10.688v-80.633c0.078125-10.508 4.2969-20.555 11.738-27.969 7.4414-7.4141 17.508-11.594 28.012-11.633h83.883c4.0117 0 7.8555 1.5938 10.688 4.4258 2.8359 2.8359 4.4297 6.6797 4.4297 10.688 0 4.0117-1.5938 7.8555-4.4297 10.688-2.832 2.8359-6.6758 4.4297-10.688 4.4297h-84.109c-2.4062 0.027344-4.7227 0.94531-6.5 2.5664-1.7539 1.7734-2.7539 4.1562-2.7969 6.6523z" fill="#fff"/>
  <path d="m715.32 741.17c-2.5156-0.38281-5.082 0.27734-7.0938 1.8359-2.0156 1.5547-3.3008 3.8711-3.5625 6.4023-7.543 0.375-14.797 3.0039-20.832 7.543-6.0352 4.5391-10.57 10.781-13.023 17.926-7.5586 24.711 10.352 51.16 33.176 59.852 10.621 4.6836 22.887 3.7188 32.648-2.5703 10.578-7.5586 12.242-20.555 13.68-32.723 3.0938-25.617-4.4609-55.848-34.992-58.266zm12.848 53.656c-1.1328 12.168-3.3242 24.863-18.438 17.758-9.75-4.6094-20.48-16.93-17.91-28.566l-0.003907 0.003906c0.72266-4.4648 3.5469-8.3047 7.5898-10.328 4.043-2.0195 8.8125-1.9766 12.816 0.125 4.4727 3.0703 10.57 2.0703 13.828-2.2695 2.6562 7.457 3.4844 15.438 2.418 23.277z" fill="#fff"/>
  <path d="m900.4 734.14c-2.5195-0.36328-5.082 0.30469-7.1016 1.8555-2.0234 1.5508-3.3281 3.8516-3.6289 6.3828-7.5312 0.39062-14.77 3.0234-20.789 7.5625-6.0195 4.5391-10.543 10.773-12.992 17.906-8.0117 24.711 10.277 51.238 33.102 59.852 10.613 4.6797 22.863 3.7422 32.645-2.4961 10.578-7.5586 12.242-20.633 13.68-32.723 3.0977-26.223-4.4609-55.77-34.914-58.34zm12.773 53.73c-1.1328 12.09-3.25 24.863-18.438 17.684-9.6719-4.5352-20.48-16.93-17.91-28.566h-0.003907c0.76563-4.4492 3.6133-8.2695 7.6641-10.273 4.0508-2 8.8125-1.9453 12.816 0.14844 4.4297 3.0781 10.5 2.1133 13.754-2.1914 2.5469 7.4531 3.2695 15.41 2.1133 23.199z" fill="#fff"/>
 </g>
</svg>
